HIERARCHY
ROOT SpineBase
{
  OFFSET 0.000000 0.000000 0.000000
  CHANNELS 6 Xposition Yposition Zposition Zrotation Xrotation Yrotation
  JOINT SpineMid
  {
    OFFSET 0.000000 31.248884 -0.000000
    CHANNELS 3 Zrotation Xrotation Yrotation
    JOINT SpineShoulder
    {
      OFFSET 0.066226 23.187393 -0.668806
      CHANNELS 3 Zrotation Xrotation Yrotation
      JOINT Neck
      {
        OFFSET 0.045860 7.661695 -0.543674
        CHANNELS 3 Zrotation Xrotation Yrotation
        JOINT Head
        {
          OFFSET -4.497917 14.396320 -1.152040
          CHANNELS 3 Zrotation Xrotation Yrotation
          End Site
          {
            OFFSET 0 0 0
          }
        }
      }
      JOINT ShoulderLeft
      {
        OFFSET -17.050012 -5.195101 7.278986
        CHANNELS 3 Zrotation Xrotation Yrotation
        JOINT ElbowLeft
        {
          OFFSET -1.235890 -26.431271 2.067615
          CHANNELS 3 Zrotation Xrotation Yrotation
          JOINT WristLeft
          {
            OFFSET 0.856736 -14.804019 -19.448251
            CHANNELS 3 Zrotation Xrotation Yrotation
            JOINT HandLeft
            {
              OFFSET -0.808093 -0.879334 -2.534872
              CHANNELS 3 Zrotation Xrotation Yrotation
              JOINT HandTipLeft
              {
                OFFSET 0.502391 -2.743749 -4.229610
                CHANNELS 3 Zrotation Xrotation Yrotation
                End Site
                {
                  OFFSET 0 0 0
                }
              }
              JOINT ThumbLeft
              {
                OFFSET 1.189894 0.785044 -1.629913
                CHANNELS 3 Zrotation Xrotation Yrotation
                End Site
                {
                  OFFSET 0 0 0
                }
              }
            }
          }
        }
      }
      JOINT ShoulderRight
      {
        OFFSET 14.707713 -3.438294 -8.378331
        CHANNELS 3 Zrotation Xrotation Yrotation
        JOINT ElbowRight
        {
          OFFSET 9.413872 -23.261156 -0.133903
          CHANNELS 3 Zrotation Xrotation Yrotation
          JOINT WristRight
          {
            OFFSET -5.365738 -22.385493 -9.094344
            CHANNELS 3 Zrotation Xrotation Yrotation
            JOINT HandRight
            {
              OFFSET -4.697939 -6.250524 -2.444273
              CHANNELS 3 Zrotation Xrotation Yrotation
              JOINT HandTipRight
              {
                OFFSET -1.428310 -5.545533 -0.911324
                CHANNELS 3 Zrotation Xrotation Yrotation
                End Site
                {
                  OFFSET 0 0 0
                }
              }
              JOINT ThumbRight
              {
                OFFSET -1.797499 1.902334 -1.154832
                CHANNELS 3 Zrotation Xrotation Yrotation
                End Site
                {
                  OFFSET 0 0 0
                }
              }
            }
          }
        }
      }
    }
  }
  JOINT HipLeft
  {
    OFFSET -6.943000 0.274561 -0.954664
    CHANNELS 3 Zrotation Xrotation Yrotation
    JOINT KneeLeft
    {
      OFFSET 3.964561 -35.598134 5.209129
      CHANNELS 3 Zrotation Xrotation Yrotation
      JOINT AnkleLeft
      {
        OFFSET 6.961072 -36.760133 6.973951
        CHANNELS 3 Zrotation Xrotation Yrotation
        JOINT FootLeft
        {
          OFFSET 1.276456 -5.688724 -6.343124
          CHANNELS 3 Zrotation Xrotation Yrotation
          End Site
          {
            OFFSET 0 0 0
          }
        }
      }
    }
  }
  JOINT HipRight
  {
    OFFSET 7.482607 1.370256 -6.246219
    CHANNELS 3 Zrotation Xrotation Yrotation
    JOINT KneeRight
    {
      OFFSET 7.056558 -32.995181 1.315392
      CHANNELS 3 Zrotation Xrotation Yrotation
      JOINT AnkleRight
      {
        OFFSET 2.608717 -38.670189 7.741985
        CHANNELS 3 Zrotation Xrotation Yrotation
        JOINT FootRight
        {
          OFFSET -4.349094 -6.670316 -1.766736
          CHANNELS 3 Zrotation Xrotation Yrotation
          End Site
          {
            OFFSET 0 0 0
          }
        }
      }
    }
  }
}
MOTION
Frames: 13
Frame Time: 0.033333
-22.382621 78.418293 347.059465 0.832047 0.420171 21.449780 0.010165 -0.223645 -21.424975 -0.030053 0.094373 0.034731 9.815844 -8.067446 -0.815671 0.000000 0.000000 0.000000 -6.106112 9.837640 -0.515720 14.641673 45.709995 -7.298149 -4.634195 -10.396680 -20.990264 -11.942381 -3.622797 34.611862 0.000000 0.000000 0.000000 0.000000 0.000000 0.000000 -12.351563 31.620589 17.037759 -93.515398 10.768209 6.595108 23.468810 -5.522818 -14.835516 -31.856054 -15.822486 -23.051589 0.000000 0.000000 0.000000 0.000000 0.000000 0.000000 -3.420327 2.345669 -21.724768 3.216343 -1.334834 0.357856 -2.999559 2.406376 3.878861 0.000000 0.000000 0.000000 -3.430461 2.452498 -21.220476 1.076037 -3.278936 -0.786491 5.773621 39.418725 -25.067214 0.000000 0.000000 0.000000
-22.469346 78.297119 347.053179 0.933913 0.632617 21.524690 0.092314 -0.178618 -21.497907 -0.021361 0.080593 0.041327 11.439155 -9.827629 -0.791776 0.000000 0.000000 0.000000 -5.617431 15.887367 -0.602994 12.333039 43.422093 -4.931047 -7.442191 -15.300626 -18.271732 -14.183883 4.002380 33.867526 0.000000 0.000000 0.000000 0.000000 0.000000 0.000000 -5.882714 31.513033 14.773230 -93.523245 10.437505 4.770868 37.163994 -11.245482 -15.471167 -40.641249 -13.204400 -13.461636 0.000000 0.000000 0.000000 0.000000 0.000000 0.000000 -3.451098 2.144154 -21.791296 3.070223 -1.344744 0.334075 -2.456504 0.682739 2.901404 0.000000 0.000000 0.000000 -3.547574 2.285304 -21.303435 1.431410 -3.224777 -0.687384 3.269682 36.504425 -21.966359 0.000000 0.000000 0.000000
-22.535517 78.206927 347.067207 1.081052 0.813042 21.456190 0.147281 -0.159880 -21.426594 0.006515 0.037632 0.051413 12.520250 -11.439457 -0.813863 0.000000 0.000000 0.000000 -4.984288 22.125349 -0.781861 11.407708 39.259332 -4.159824 -13.028757 -13.013923 -15.125833 -12.165394 0.501664 31.672044 0.000000 0.000000 0.000000 0.000000 0.000000 0.000000 -1.904528 31.741449 13.541297 -92.614708 8.505568 1.629079 37.585057 -11.530956 -15.068868 -36.657302 -7.108574 -7.346027 0.000000 0.000000 0.000000 0.000000 0.000000 0.000000 -3.526539 1.991775 -21.713009 2.936494 -1.361891 0.311591 -1.793375 -2.002873 1.554699 0.000000 0.000000 0.000000 -3.733182 2.108126 -21.254439 2.089836 -2.805718 -0.483479 -0.157647 28.636349 -15.948118 0.000000 0.000000 0.000000
-22.569110 78.169124 347.103773 1.276539 0.921601 21.388054 0.217891 -0.193563 -21.352256 0.063068 -0.038900 0.068476 12.682117 -12.623220 -0.949539 0.000000 0.000000 0.000000 -4.527190 27.464186 -1.025389 9.715400 35.924423 -2.709396 -11.989130 -12.736003 -16.642749 -17.437077 -4.558848 35.391799 0.000000 0.000000 0.000000 0.000000 0.000000 0.000000 -0.238633 32.238456 13.085612 -91.360621 5.109812 -2.133453 32.313810 -10.632466 -14.051350 -23.452418 -1.898861 -6.134831 0.000000 0.000000 0.000000 0.000000 0.000000 0.000000 -3.645730 1.976898 -21.631341 2.845818 -1.419020 0.292385 0.048763 -6.039266 -1.495936 0.000000 0.000000 0.000000 -3.991341 1.935086 -21.223693 2.240396 -2.477921 -0.402099 0.287989 19.450415 -10.949516 0.000000 0.000000 0.000000
-22.564987 78.193092 347.155826 1.505429 0.952472 21.300261 0.300048 -0.246780 -21.255760 0.111375 -0.099489 0.087456 12.132029 -13.451089 -1.181322 0.000000 0.000000 0.000000 -4.196771 31.397278 -1.288434 8.606651 32.300926 -1.882728 -8.960538 -10.294580 -19.475444 -20.232095 -8.692486 38.086435 0.000000 0.000000 0.000000 0.000000 0.000000 0.000000 1.532868 31.765339 12.148688 -90.424723 2.279242 -3.924789 28.683227 -12.490996 -12.795745 -15.365332 10.896926 -3.484280 0.000000 0.000000 0.000000 0.000000 0.000000 0.000000 -3.838389 2.100297 -21.533047 2.840615 -1.501565 0.284419 -0.722926 -3.526545 -0.007992 0.000000 0.000000 0.000000 -4.274722 1.839009 -21.171651 2.383874 -2.104478 -0.321947 1.933353 6.913363 -4.019198 0.000000 0.000000 0.000000
-22.555558 78.210166 347.207575 1.712763 0.930739 21.199465 0.380915 -0.342625 -21.144532 0.155942 -0.154200 0.106221 11.450851 -13.843396 -1.398979 0.000000 0.000000 0.000000 -4.646611 34.289176 -1.377161 8.070851 30.713913 -0.987867 -4.137326 -17.746898 -21.967347 -27.551925 -9.691133 43.969059 0.000000 0.000000 0.000000 0.000000 0.000000 0.000000 2.671830 30.911990 11.259557 -90.035179 0.151341 -4.348540 28.990479 -13.162413 -12.359340 -8.162622 22.772080 -2.596052 0.000000 0.000000 0.000000 0.000000 0.000000 0.000000 -4.001401 2.261753 -21.420031 2.842721 -1.579472 0.278012 0.490164 -4.236012 -1.541342 0.000000 0.000000 0.000000 -4.461083 1.822127 -21.088785 2.258997 -2.016958 -0.324601 3.661951 1.457678 -0.887306 0.000000 0.000000 0.000000
-22.548039 78.201331 347.251442 1.858090 0.888313 21.110431 0.436463 -0.424675 -21.047083 0.189818 -0.193067 0.120002 11.053081 -14.064396 -1.541646 0.000000 0.000000 0.000000 -4.887632 33.610766 -1.368321 7.943432 29.788575 -0.970659 -3.747168 -16.601953 -22.004875 -28.447881 -10.733981 44.649615 0.000000 0.000000 0.000000 0.000000 0.000000 0.000000 3.518408 29.417986 10.291293 -87.768373 -1.604139 -4.090258 22.959233 -12.072886 -10.774277 5.143975 29.205273 -6.753726 0.000000 0.000000 0.000000 0.000000 0.000000 0.000000 -4.104586 2.392210 -21.320540 2.839562 -1.629071 0.273217 0.811596 -4.645471 -2.002167 0.000000 0.000000 0.000000 -4.538184 1.820502 -21.008448 2.088421 -2.072700 -0.346018 5.697420 -0.459698 0.003789 0.000000 0.000000 0.000000
-22.544531 78.198501 347.289322 2.022158 0.861064 21.049134 0.553333 -0.459850 -20.976709 0.246542 -0.190748 0.136914 10.493714 -14.511835 -1.700700 0.000000 0.000000 0.000000 -4.361565 31.277399 -1.497297 6.944088 32.039799 -1.219052 -3.883312 -18.242819 -21.365488 -28.576997 -8.028984 44.580632 0.000000 0.000000 0.000000 0.000000 0.000000 0.000000 4.008551 27.589860 9.368141 -86.460773 -1.656559 -2.322283 19.725132 -16.696394 -9.798232 8.946763 38.180298 -8.663307 0.000000 0.000000 0.000000 0.000000 0.000000 0.000000 -4.233280 2.533279 -21.248751 2.845459 -1.692639 0.268661 1.177308 -4.589738 -2.397276 0.000000 0.000000 0.000000 -4.607082 1.872359 -20.941209 1.869718 -2.138986 -0.386303 6.230725 3.501212 -2.863815 0.000000 0.000000 0.000000
-22.546379 78.233367 347.312983 2.176813 0.785145 21.038893 0.584993 -0.577623 -20.956201 0.250821 -0.231661 0.148701 10.454315 -14.142733 -1.692988 0.000000 0.000000 0.000000 -3.641418 27.750503 -1.521474 5.178209 35.599533 -1.000343 -2.724174 -18.597448 -21.830786 -27.864994 -6.656743 44.190327 0.000000 0.000000 0.000000 0.000000 0.000000 0.000000 5.114277 26.726712 8.597487 -87.073559 -0.727282 -0.621372 10.926847 -21.767147 -8.795808 18.625562 45.954363 -13.672488 0.000000 0.000000 0.000000 0.000000 0.000000 0.000000 -4.340950 2.731054 -21.224706 2.524604 -2.476863 0.053507 3.051013 -3.043454 -3.726691 0.000000 0.000000 0.000000 -4.635937 2.019247 -20.909884 1.661970 -2.025956 -0.418163 5.333496 3.771355 -2.800884 0.000000 0.000000 0.000000
-22.540688 78.167412 347.314889 2.342223 0.673523 20.904052 0.563629 -0.676139 -20.812138 0.214837 -0.270408 0.155475 10.585366 -13.561603 -1.639406 0.000000 0.000000 0.000000 -3.037933 25.438231 -1.515815 3.247733 37.921611 -0.218938 0.202655 -17.761350 -23.921790 -19.208082 -5.164132 39.590272 0.000000 0.000000 0.000000 0.000000 0.000000 0.000000 4.778577 27.000701 8.616745 -88.934302 1.061293 0.900363 -6.204812 -23.779290 -8.892584 41.929310 49.296091 -23.929201 0.000000 0.000000 0.000000 0.000000 0.000000 0.000000 -4.432435 2.885700 -21.074987 2.455327 -2.543166 0.028144 3.473773 -2.545108 -4.031159 0.000000 0.000000 0.000000 -4.727375 2.231104 -20.749084 1.629398 -1.955229 -0.427878 4.586512 3.528602 -2.471145 0.000000 0.000000 0.000000
-22.528858 78.028003 347.293095 2.445629 0.417484 20.734825 0.422733 -0.817898 -20.634204 0.139444 -0.325602 0.153392 10.991749 -12.336261 -1.542796 0.000000 0.000000 0.000000 -2.516671 24.249617 -1.479296 3.522938 39.128979 -1.085628 1.346314 -18.194862 -24.784346 -16.951484 -4.771161 38.773415 0.000000 0.000000 0.000000 0.000000 0.000000 0.000000 2.840904 28.831273 9.599306 -92.171854 2.839555 1.731703 -21.987827 -16.698305 -7.363528 56.482570 43.713250 -22.882097 0.000000 0.000000 0.000000 0.000000 0.000000 0.000000 -4.396477 3.099975 -20.881452 2.328025 -2.539796 0.001680 4.121944 -6.943375 -5.793818 0.000000 0.000000 0.000000 -4.814215 2.475519 -20.568378 1.772206 -1.657737 -0.378378 3.914269 2.952001 -2.082584 0.000000 0.000000 0.000000
-22.509711 77.841941 347.261422 2.465635 0.042230 20.526699 0.206992 -0.947665 -20.419655 0.048522 -0.366113 0.143394 11.614439 -10.774516 -1.428824 0.000000 0.000000 0.000000 -2.017333 24.472853 -1.476788 5.245240 39.146827 -3.008327 1.192569 -19.858436 -24.638175 -8.888166 -2.675967 33.783239 0.000000 0.000000 0.000000 0.000000 0.000000 0.000000 -0.492058 31.982422 11.669172 -96.249929 4.201181 1.397450 -25.805484 -4.533008 -2.579849 46.424298 34.992671 -9.757247 0.000000 0.000000 0.000000 0.000000 0.000000 0.000000 -4.237289 3.393609 -20.641569 2.206102 -2.514339 -0.018524 2.091706 -4.013733 -2.687099 0.000000 0.000000 0.000000 -4.822544 2.788502 -20.345607 1.987789 -1.244105 -0.307093 3.369226 3.353393 -2.486828 0.000000 0.000000 0.000000
-22.481719 77.642369 347.235766 2.389907 -0.386548 20.298931 -0.076352 -1.049718 -20.190115 -0.049442 -0.400321 0.125912 12.499899 -9.017031 -1.294779 0.000000 0.000000 0.000000 -1.438166 25.723581 -1.516196 6.289252 38.065074 -4.096932 2.685063 -20.927200 -25.787577 -0.587749 -0.482213 28.645002 0.000000 0.000000 0.000000 0.000000 0.000000 0.000000 -5.504051 35.444015 14.879563 -100.403015 6.013468 1.185131 -24.910981 -3.258028 -3.270215 27.419167 24.033156 -9.017721 0.000000 0.000000 0.000000 0.000000 0.000000 0.000000 -3.987612 3.730297 -20.382560 2.142211 -2.557962 -0.038551 0.063179 -2.125929 0.082215 0.000000 0.000000 0.000000 -4.776354 3.067870 -20.115593 2.375993 -0.512863 -0.173255 2.708534 -2.213401 0.912622 0.000000 0.000000 0.000000
